<svg width="137" height="42" viewBox="0 0 137 42" fill="none" xmlns="http://www.w3.org/2000/svg">
<path d="M19.1172 0.875H27.3438V23.1641C27.3438 25.8203 26.7891 28.0703 25.6797 29.9141C24.5703 31.7422 23.0156 33.125 21.0156 34.0625C19.0156 35 16.6641 35.4688 13.9609 35.4688C11.2891 35.4688 8.9375 35 6.90625 34.0625C4.89062 33.125 3.3125 31.7422 2.17188 29.9141C1.04688 28.0703 0.484375 25.8203 0.484375 23.1641V0.875H8.73438V23.1641C8.73438 24.5703 8.9375 25.7188 9.34375 26.6094C9.75 27.4844 10.3438 28.125 11.125 28.5312C11.9062 28.9375 12.8516 29.1406 13.9609 29.1406C15.0859 29.1406 16.0312 28.9375 16.7969 28.5312C17.5625 28.125 18.1406 27.4844 18.5312 26.6094C18.9219 25.7188 19.1172 24.5703 19.1172 23.1641V0.875ZM46.1406 23.4219H37.6562V17.0703H46.1406C47.2969 17.0703 48.2344 16.875 48.9531 16.4844C49.6719 16.0938 50.1953 15.5547 50.5234 14.8672C50.8672 14.1641 51.0391 13.375 51.0391 12.5C51.0391 11.5625 50.8672 10.6953 50.5234 9.89844C50.1953 9.10156 49.6719 8.46094 48.9531 7.97656C48.2344 7.47656 47.2969 7.22656 46.1406 7.22656H40.75V35H32.5234V0.875H46.1406C48.875 0.875 51.2266 1.375 53.1953 2.375C55.1797 3.375 56.7031 4.75 57.7656 6.5C58.8281 8.23438 59.3594 10.2188 59.3594 12.4531C59.3594 14.6562 58.8281 16.5781 57.7656 18.2188C56.7031 19.8594 55.1797 21.1406 53.1953 22.0625C51.2266 22.9688 48.875 23.4219 46.1406 23.4219ZM69.5312 0.875V41.3281H65.2422V0.875H69.5312ZM87.1562 35H79.5859L79.6328 28.6719H87.1562C88.7188 28.6719 90.0391 28.2969 91.1172 27.5469C92.2109 26.7969 93.0391 25.6797 93.6016 24.1953C94.1797 22.6953 94.4688 20.8516 94.4688 18.6641V17.1875C94.4688 15.5469 94.3047 14.1094 93.9766 12.875C93.6641 11.625 93.1953 10.5859 92.5703 9.75781C91.9453 8.91406 91.1641 8.28125 90.2266 7.85938C89.3047 7.4375 88.2422 7.22656 87.0391 7.22656H79.4453V0.875H87.0391C89.3516 0.875 91.4688 1.27344 93.3906 2.07031C95.3281 2.85156 97 3.97656 98.4062 5.44531C99.8281 6.89844 100.922 8.625 101.688 10.625C102.469 12.6094 102.859 14.8125 102.859 17.2344V18.6641C102.859 21.0703 102.469 23.2734 101.688 25.2734C100.922 27.2734 99.8359 29 98.4297 30.4531C97.0234 31.9062 95.3594 33.0312 93.4375 33.8281C91.5312 34.6094 89.4375 35 87.1562 35ZM84.2969 0.875V35H76.0703V0.875H84.2969ZM136.023 17.2578V18.6406C136.023 21.25 135.656 23.5938 134.922 25.6719C134.203 27.7344 133.18 29.5 131.852 30.9688C130.523 32.4219 128.953 33.5391 127.141 34.3203C125.328 35.0859 123.328 35.4688 121.141 35.4688C118.938 35.4688 116.922 35.0859 115.094 34.3203C113.281 33.5391 111.703 32.4219 110.359 30.9688C109.031 29.5 108 27.7344 107.266 25.6719C106.547 23.5938 106.188 21.25 106.188 18.6406V17.2578C106.188 14.6484 106.547 12.3047 107.266 10.2266C108 8.14844 109.023 6.38281 110.336 4.92969C111.664 3.46094 113.234 2.34375 115.047 1.57812C116.875 0.796875 118.891 0.40625 121.094 0.40625C123.281 0.40625 125.281 0.796875 127.094 1.57812C128.922 2.34375 130.5 3.46094 131.828 4.92969C133.156 6.38281 134.188 8.14844 134.922 10.2266C135.656 12.3047 136.023 14.6484 136.023 17.2578ZM127.68 18.6406V17.2109C127.68 15.5234 127.531 14.0391 127.234 12.7578C126.953 11.4609 126.531 10.375 125.969 9.5C125.406 8.625 124.711 7.96875 123.883 7.53125C123.07 7.07812 122.141 6.85156 121.094 6.85156C120 6.85156 119.047 7.07812 118.234 7.53125C117.422 7.96875 116.742 8.625 116.195 9.5C115.648 10.375 115.234 11.4609 114.953 12.7578C114.688 14.0391 114.555 15.5234 114.555 17.2109V18.6406C114.555 20.3125 114.688 21.7969 114.953 23.0938C115.234 24.375 115.648 25.4609 116.195 26.3516C116.758 27.2422 117.445 27.9141 118.258 28.3672C119.086 28.8203 120.047 29.0469 121.141 29.0469C122.188 29.0469 123.117 28.8203 123.93 28.3672C124.742 27.9141 125.422 27.2422 125.969 26.3516C126.531 25.4609 126.953 24.375 127.234 23.0938C127.531 21.7969 127.68 20.3125 127.68 18.6406Z" fill="white"/>
</svg>
